#!OML:ASF F:\VICON\USERDATA\INSTALL\rory7\rory7.ASF
:FULLY-SPECIFIED
:DEGREES
1103
root 0.452408 18.8501 2.32365 -3.89685 -4.67348 2.05384
lowerback 5.64172 1.51078 -1.80925
upperback 1.38618 1.87967 -1.28243
thorax -1.74975 0.942532 -0.435797
lowerneck -1.73796 -3.59412 -4.61098
upperneck 13.257 -5.27257 5.57546
head 4.51505 -2.52982 2.23224
rclavicle 1.98536e-014 1.13307e-014
rhumerus 15.0718 26.0192 -56.6033
rradius 131.384
rwrist -20.0505
rhand -34.0247 -0.365054
rfingers 7.12502
rthumb -7.20342 -30.2225
lclavicle 1.98536e-014 1.13307e-014
lhumerus -36.9102 -2.31286 80.9868
lradius 66.7966
lwrist 3.47987
lhand -26.7515 22.7945
lfingers 7.12502
lthumb -0.180052 52.7741
rfemur 6.76702 18.9553 16.4472
rtibia 8.9449
rfoot -10.9677 -22.5615
rtoes -6.61892
lfemur 6.438 -11.5337 -20.0586
ltibia 7.93659
lfoot -9.88033 20.1503
ltoes -6.53545
1104
root 0.45175 18.85 2.32511 -3.9144 -4.65293 2.04462
lowerback 5.63083 1.51582 -1.79621
upperback 1.39637 1.88852 -1.24075
thorax -1.73424 0.946838 -0.400424
lowerneck -1.64157 -3.56142 -4.66557
upperneck 13.6755 -5.24861 5.58927
head 4.62698 -2.51838 2.24737
rclavicle -5.66536e-015 2.80286e-014
rhumerus 14.577 26.4983 -56.9455
rradius 131.451
rwrist -20.4716
rhand -34.1296 -0.565874
rfingers 7.12502
rthumb -7.30469 -30.4198
lclavicle -5.66536e-015 2.80286e-014
lhumerus -36.9172 -2.55959 81.2265
lradius 68.1734
lwrist 3.00914
lhand -26.3034 22.5269
lfingers 7.12502
lthumb 0.252756 52.5065
rfemur 6.78071 18.9342 16.47
rtibia 9.00825
rfoot -11.0837 -22.5217
rtoes -6.3456
lfemur 6.51853 -11.5545 -20.055
ltibia 7.82817
lfoot -9.82735 20.16
ltoes -6.60698
1105
root 0.451403 18.8504 2.32351 -3.87153 -4.6687 1.95878
lowerback 5.60185 1.51793 -1.71078
upperback 1.39945 1.89839 -1.17854
thorax -1.71436 0.951457 -0.384112
lowerneck -1.59925 -3.53417 -4.72379
upperneck 14.0843 -5.22879 5.59699
head 4.74548 -2.50879 2.26018
rclavicle -1.94436e-015 -8.15017e-015
rhumerus 14.0889 26.9515 -57.3017
rradius 131.539
rwrist -20.9954
rhand -34.1828 -0.841047
rfingers 7.12502
rthumb -7.35602 -30.6932
lclavicle -1.94436e-015 -8.15017e-015
lhumerus -36.8976 -2.86991 81.5235
lradius 69.5772
lwrist 2.86854
lhand -26.3657 22.4565
lfingers 7.12502
lthumb 0.192568 52.4362
rfemur 6.67469 18.9408 16.5518
rtibia 9.10456
rfoot -11.1437 -22.5246
rtoes -6.43336
lfemur 6.53433 -11.5458 -19.9484
ltibia 7.69559
lfoot -9.78803 20.1541
ltoes -6.57223
1106
root 0.450777 18.8512 2.32039 -3.81195 -4.68652 1.96687
lowerback 5.55757 1.52622 -1.71881
upperback 1.38699 1.91005 -1.17314
thorax -1.703 0.957313 -0.373829
lowerneck -1.54679 -3.51789 -4.66917
upperneck 14.4722 -5.22437 5.55984
head 4.85296 -2.50385 2.24009
rclavicle -6.64065e-015 -1.19271e-015
rhumerus 13.5643 27.3411 -57.7659
rradius 131.598
rwrist -21.4779
rhand -33.8538 -1.23808
rfingers 7.12502
rthumb -7.03841 -31.1011
lclavicle -6.64065e-015 -1.19271e-015
lhumerus -36.887 -3.23439 81.7332
lradius 70.9843
lwrist 2.66919
lhand -26.328 22.1499
lfingers 7.12502
lthumb 0.228911 52.1295
rfemur 6.55638 18.9561 16.5159
rtibia 9.15443
rfoot -11.163 -22.5368
rtoes -6.53345
lfemur 6.49589 -11.5276 -19.9388
ltibia 7.61628
lfoot -9.77944 20.1488
ltoes -6.27437
1107
root 0.450216 18.8531 2.31886 -3.7558 -4.64235 2.07125
lowerback 5.49566 1.52963 -1.82004
upperback 1.3745 1.90972 -1.2062
thorax -1.68346 0.957403 -0.349556
lowerneck -1.45981 -3.49579 -4.64752
upperneck 14.8738 -5.22426 5.61342
head 4.96215 -2.49805 2.25414
rclavicle 1.08835e-014 2.32578e-014
rhumerus 13.0309 27.6889 -58.2458
rradius 131.725
rwrist -21.9707
rhand -33.4545 -3.01848
rfingers 7.12502
rthumb -6.65299 -32.894
lclavicle 1.08835e-014 2.32578e-014
lhumerus -36.8324 -3.64251 81.9288
lradius 72.365
lwrist 2.51469
lhand -26.2283 21.912
lfingers 7.12502
lthumb 0.325199 51.8914
rfemur 6.45822 18.9169 16.3689
rtibia 9.19649
rfoot -11.153 -22.5494
rtoes -6.55429
lfemur 6.47353 -11.5627 -20.0494
ltibia 7.52584
lfoot -9.70555 20.1744
ltoes -6.21892
1108
root 0.450642 18.8543 2.32015 -3.72657 -4.56645 2.13586
lowerback 5.44258 1.52477 -1.87227
upperback 1.39303 1.90211 -1.21401
thorax -1.63616 0.953469 -0.325936
lowerneck -1.32116 -3.45348 -4.68222
upperneck 15.1762 -5.19769 5.71804
head 5.03342 -2.48087 2.29615
rclavicle -2.45623e-014 1.19271e-015
rhumerus 12.5535 27.9791 -58.6758
rradius 131.949
rwrist -22.7254
rhand -33.0907 -5.62815
rfingers 7.12502
rthumb -6.3018 -35.5144
lclavicle -2.45623e-014 1.19271e-015
lhumerus -36.6569 -4.0398 82.1729
lradius 73.6829
lwrist 2.3246
lhand -26.2752 22.5332
lfingers 7.12502
lthumb 0.279931 52.5128
rfemur 6.41272 18.8445 16.2762
rtibia 9.24596
rfoot -11.1742 -22.5562
rtoes -6.51123
lfemur 6.49455 -11.6317 -20.133
ltibia 7.42386
lfoot -9.62529 20.208
ltoes -6.27064
1109
root 0.449065 18.8535 2.3202 -3.75863 -4.58566 2.10802
lowerback 5.48166 1.53505 -1.8609
upperback 1.42161 1.91631 -1.18934
thorax -1.62916 0.960372 -0.308578
lowerneck -1.20982 -3.39658 -4.55431
upperneck 15.417 -5.13201 5.64213
head 5.08003 -2.44596 2.25675
rclavicle -1.56605e-014 1.51076e-014
rhumerus 12.0664 28.348 -59.1541
rradius 131.985
rwrist -23.3109
rhand -33.394 -6.29574
rfingers 7.12502
rthumb -6.59453 -36.1731
lclavicle -1.56605e-014 1.51076e-014
lhumerus -36.4789 -4.42986 82.3933
lradius 74.9626
lwrist 2.26369
lhand -26.5718 23.2622
lfingers 7.12502
lthumb -0.00647141 53.242
rfemur 6.44403 18.8628 16.3253
rtibia 9.24778
rfoot -11.1985 -22.5474
rtoes -6.46862
lfemur 6.53797 -11.6143 -20.1089
ltibia 7.41569
lfoot -9.66038 20.1904
ltoes -6.11814
1110
root 0.446363 18.8535 2.31956 -3.7257 -4.73455 2.03026
lowerback 5.47888 1.5758 -1.80365
upperback 1.40645 1.97398 -1.16489
thorax -1.64267 0.989123 -0.319678
lowerneck -1.09484 -3.3716 -4.41932
upperneck 15.7143 -5.11104 5.55402
head 5.14569 -2.43279 2.20991
rclavicle -2.23757e-014 -3.97569e-016
rhumerus 11.4581 28.7881 -59.6997
rradius 131.798
rwrist -23.6456
rhand -34.2323 -4.79384
rfingers 7.12502
rthumb -7.40379 -34.6443
lclavicle -2.23757e-014 -3.97569e-016
lhumerus -36.3931 -4.78785 82.5583
lradius 76.2369
lwrist 2.25377
lhand -26.7975 22.8572
lfingers 7.12502
lthumb -0.224547 52.8368
rfemur 6.39021 19.0031 16.4096
rtibia 9.20816
rfoot -11.1577 -22.5352
rtoes -6.4874
lfemur 6.46312 -11.4717 -20.006
ltibia 7.51851
lfoot -9.7544 20.1725
ltoes -6.0927
1111
root 0.442432 18.8556 2.31299 -3.618 -4.73833 1.92409
lowerback 5.47706 1.56991 -1.73662
upperback 1.35801 1.96984 -1.12355
thorax -1.69064 0.98729 -0.315298
lowerneck -0.952734 -3.39069 -4.68575
upperneck 16.0442 -5.17735 5.8006
head 5.23938 -2.46574 2.33
rclavicle -1.08338e-014 -5.1684e-015
rhumerus 10.8045 29.1613 -60.2466
rradius 131.701
rwrist -24.1659
rhand -34.5039 -3.60423
rfingers 7.12502
rthumb -7.66591 -33.4453
lclavicle -1.08338e-014 -5.1684e-015
lhumerus -36.374 -5.12825 82.7458
lradius 77.5747
lwrist 2.21501
lhand -26.7846 22.1008
lfingers 7.12502
lthumb -0.212067 52.0804
rfemur 6.27303 18.9913 16.5041
rtibia 9.16145
rfoot -11.036 -22.5444
rtoes -6.59496
lfemur 6.24183 -11.4786 -19.8413
ltibia 7.66005
lfoot -9.76199 20.1975
ltoes -6.33743
1112
root 0.432797 18.8577 2.29044 -3.56724 -4.31852 1.85557
lowerback 5.74358 1.43948 -1.81215
upperback 1.33163 1.78541 -1.0552
thorax -1.86939 0.896478 -0.197872
lowerneck -1.0407 -3.42423 -5.14646
upperneck 16.4678 -5.2638 6.14418
head 5.41034 -2.50931 2.50805
rclavicle -1.86795e-014 -7.95139e-016
rhumerus 10.2942 29.4284 -60.724
rradius 131.689
rwrist -24.8234
rhand -34.3777 -3.34182
rfingers 7.12502
rthumb -7.54415 -33.1873
lclavicle -1.86795e-014 -7.95139e-016
lhumerus -36.2415 -5.48524 82.9705
lradius 78.8947
lwrist 2.24215
lhand -26.5368 21.7458
lfingers 7.12502
lthumb 0.0272466 51.7256
rfemur 6.26554 18.5591 16.6007
rtibia 9.12236
rfoot -10.9906 -22.5223
rtoes -6.56071
lfemur 5.95537 -11.9126 -19.685
ltibia 7.82204
lfoot -9.56408 20.2579
ltoes -6.88434
1113
root 0.429455 18.8594 2.28477 -3.55332 -4.20318 1.87478
lowerback 5.8178 1.41612 -1.87445
upperback 1.38099 1.7499 -1.03191
thorax -1.86219 0.878758 -0.137649
lowerneck -1.25081 -3.43079 -5.25759
upperneck 16.9149 -5.28252 6.16479
head 5.58999 -2.51632 2.52859
rclavicle 1.19892e-015 -4.37326e-015
rhumerus 9.83297 29.6415 -61.1767
rradius 131.645
rwrist -25.4413
rhand -34.4509 -3.06791
rfingers 7.12502
rthumb -7.61481 -32.9108
lclavicle 1.19892e-015 -4.37326e-015
lhumerus -35.9915 -5.87792 83.1871
lradius 80.148
lwrist 2.25818
lhand -26.2955 21.6355
lfingers 7.12502
lthumb 0.260331 51.6151
rfemur 6.26867 18.443 16.5826
rtibia 9.09221
rfoot -10.9867 -22.4937
rtoes -6.56356
lfemur 5.84679 -12.0282 -19.6884
ltibia 7.958
lfoot -9.56673 20.2541
ltoes -6.90404
1114
root 0.426269 18.861 2.27974 -3.50704 -4.13948 1.87927
lowerback 5.87051 1.4025 -1.91654
upperback 1.38958 1.72815 -1.01928
thorax -1.8841 0.868144 -0.100768
lowerneck -1.36337 -3.40022 -5.0921
upperneck 17.2856 -5.23816 5.99147
head 5.71411 -2.49047 2.44735
rclavicle -1.18277e-014 -2.04748e-014
rhumerus 9.2355 29.9205 -61.718
rradius 131.608
rwrist -25.9706
rhand -34.6169 -2.70116
rfingers 7.12502
rthumb -7.77503 -32.5382
lclavicle -1.18277e-014 -2.04748e-014
lhumerus -35.8084 -6.27538 83.3858
lradius 81.4233
lwrist 2.22695
lhand -26.2196 21.639
lfingers 7.12502
lthumb 0.333607 51.6185
rfemur 6.24641 18.3761 16.5672
rtibia 9.04118
rfoot -10.9875 -22.4923
rtoes -6.4038
lfemur 5.71095 -12.094 -19.6586
ltibia 8.07961
lfoot -9.70594 20.1942
ltoes -6.40547
